<svg xmlns="http://www.w3.org/2000/svg" viewBox="0 0 1024 1024">
  <rect width="1024" height="1024" rx="160" fill="#0f766e"/>
  <path fill="#f8fafc" d="M242 322c0-48 39-88 88-88h364c49 0 88 40 88 88v80c0 49-39 88-88 88H330c-49 0-88-39-88-88zm88-18c-10 0-18 8-18 18v80c0 10 8 18 18 18h364c10 0 18-8 18-18v-80c0-10-8-18-18-18z"/>
  <path fill="#f8fafc" d="M242 624c0-49 39-88 88-88h364c49 0 88 39 88 88v80c0 48-39 88-88 88H330c-49 0-88-40-88-88zm88-18c-10 0-18 8-18 18v80c0 10 8 18 18 18h364c10 0 18-8 18-18v-80c0-10-8-18-18-18z"/>
  <circle cx="386" cy="362" r="42" fill="#14b8a6"/>
  <circle cx="386" cy="664" r="42" fill="#f59e0b"/>
  <path fill="#f8fafc" d="M474 344h156a34 34 0 1 1 0 68H474a34 34 0 1 1 0-68m0 302h156a34 34 0 1 1 0 68H474a34 34 0 1 1 0-68"/>
</svg>
